<svg width="1365" height="462" viewBox="0 0 1365 462" fill="none" xmlns="http://www.w3.org/2000/svg">
<g clip-path="url(#clip0_168_44)">
<path d="M-237.566 357.122L-193.687 348.2C-149.838 338.846 -62.0327 321.652 25.2827 297.638C112.645 274.274 199.516 244.09 288.544 243.891C377.541 243.259 468.615 271.53 559.277 294.064C649.908 316.164 740.204 333.61 826.274 292.277C912.391 251.592 994.282 152.128 1080.4 111.444C1166.47 70.1105 1256.76 87.5564 1301.86 95.5216L1346.98 103.92L1364.42 346.4L1320.12 349.584C1275.83 352.769 1187.25 359.138 1098.67 365.507C1010.08 371.876 921.497 378.245 832.913 384.614C744.329 390.983 655.745 397.352 567.161 403.721C478.577 410.09 389.993 416.459 301.409 422.828C212.825 429.197 124.241 435.566 35.6574 441.935C-52.9266 448.304 -141.511 454.673 -185.803 457.857L-230.095 461.042L-237.566 357.122Z" fill="#251B40"/>
</g>
<defs>
<clipPath id="clip0_168_44">
<rect width="1598.63" height="347.294" fill="white" transform="translate(-255 114.642) rotate(-4.11238)"/>
</clipPath>
</defs>
</svg>
