<svg width="540" height="414" viewBox="0 0 540 414" fill="none" xmlns="http://www.w3.org/2000/svg">
<path d="M184.304 11.6728C151.2 30.0763 127.314 58.4942 104.809 86.6785C82.4415 114.704 60.0744 142.73 37.7072 170.755C12.8973 201.845 -12.8365 241.707 7.14094 275.384C32.057 317.394 103.938 311.789 146.675 340.637C171.57 357.443 185.09 385.244 211.345 400.368C233.521 413.148 261.58 414.96 288.058 413.634C364.431 409.832 440.783 381.358 489.595 329.557C538.408 277.757 555.561 201.779 524.102 140.45C506.769 106.651 476.426 79.0276 442.206 57.3731C396.431 28.4228 247.019 -23.2003 184.304 11.6728Z" fill="#A3BCF9"/>
</svg>
