<svg width="34" height="34" viewBox="0 0 34 34" fill="none" xmlns="http://www.w3.org/2000/svg">
<path d="M20.0508 28.3758C18.6459 29.121 14.0272 31.5993 7.8779 24.8072C2.55691 18.9296 5.30547 12.9088 7.63975 11.1813C8.47006 10.5667 10.2124 14.3604 15.2212 11.5648C15.6407 11.3305 16.2964 10.1946 16.9038 10.869C19.5875 13.852 21.6536 11.3345 21.5761 13.1275C21.3542 18.2513 24.3481 15.9477 22.8054 18.8434C19.9567 24.1916 23.5517 25.7462 22.595 26.5771C21.8156 27.253 20.9965 27.875 20.0508 28.3758Z" fill="#FD7F7F"/>
<path d="M16.4737 6.0282C16.7997 4.64399 20.2399 4.08642 22.6064 5.83386C25.1165 7.68779 24.41 9.68251 23.0874 10.634C20.966 12.1598 19.1847 12.1559 18.2932 11.5234C17.2978 10.817 16.6325 9.94956 16.6014 8.66846C16.5805 7.79875 16.2995 6.93662 16.4737 6.0282Z" fill="#FD7F7F"/>
<path d="M23.5332 16.8881C22.6755 16.306 22.055 15.5662 22.0776 14.4582C22.0779 14.4442 22.077 14.4307 22.0745 14.4172C21.6051 11.9422 23.2592 10.794 24.7971 9.9575C25.2863 9.69189 25.9697 9.58647 26.4939 9.83268C27.8001 10.4464 29.4037 12.4637 29.1057 14.2511C28.9691 15.0707 28.9125 15.9008 28.597 16.6797C28.3603 17.2635 27.9696 17.6141 27.3125 17.6243C26.9585 17.6304 24.334 17.4323 23.5332 16.8881Z" fill="#FD7F7F"/>
<path d="M13.9265 5.30099C14.8706 5.31647 15.4291 5.85133 15.7783 6.62766C16.2378 7.64786 16.2792 8.70469 15.9455 9.7559C15.6506 10.6841 15.0117 11.3141 14.1008 11.6287C11.6715 12.4675 8.22999 11.7991 8.45159 9.69692C8.57076 8.5693 8.91839 8.0381 9.7018 7.26993C10.5452 6.44334 11.5488 5.85504 12.6898 5.50923C13.0835 5.39049 13.4851 5.31675 13.9265 5.30099Z" fill="#FD7F7F"/>
<path d="M28.2015 21.7127C27.6958 22.7594 27.1292 23.7381 26.3538 24.5568C25.6667 25.2824 23.6688 26.4169 23.0834 25.5353C20.8221 22.1299 22.8531 19.3182 23.9994 18.6232C24.315 18.4319 24.7451 17.9176 26.7624 18.088C28.2128 18.2103 29.039 19.4708 28.5654 20.859C28.4692 21.1419 28.3348 21.4102 28.2015 21.7127Z" fill="#FD7F7F"/>
</svg>
