<svg width="300" height="300" viewBox="0 0 300 300" fill="none" xmlns="http://www.w3.org/2000/svg">
<path d="M150 300C232.843 300 300 232.843 300 150C300 67.1573 232.843 0 150 0C67.1573 0 0 67.1573 0 150C0 232.843 67.1573 300 150 300Z" fill="#251B40"/>
<path d="M195.448 119.369C186.272 105.853 171.958 97.7767 154.063 95.8598C125.423 92.7897 91.4295 109.508 91.4295 152.735L99.3425 152.817C99.3425 111.082 132.522 101.84 152.661 104.135C207.241 110.361 200.458 175.309 187.235 183.394C166.052 196.348 160.644 171.347 160.644 171.347H152.891C152.891 171.347 149.941 188.162 134.972 185.599C125.178 183.923 122.38 173.497 121.62 169.82C143.439 158.174 142.566 132.32 142.566 132.32L123.631 126.557C123.631 126.557 111.265 146.439 112.059 165.097C93.0698 170.646 79.9711 157.294 79.9204 157.243L74.1113 162.631C74.3412 162.877 90.0503 180.444 113.661 172.913C114.565 176.529 118.823 191.287 133.543 193.808C146.31 195.994 153.74 188.548 156.214 184.687C159.533 190.2 165.892 194.864 175.18 195.288C175.441 195.3 175.702 195.292 175.967 195.308C188.552 195.884 203.072 184.874 205.398 160.843C206.844 145.925 203.217 130.812 195.448 119.369ZM127.655 136.282L134.014 138.175C133.585 141.125 132.342 153.292 120.654 160.831C121.184 150.105 125.263 141.062 127.655 136.282Z" fill="#EC9A29"/>
<path d="M111.649 128.827L104.934 135.424L110.089 140.671L116.804 134.075L111.649 128.827Z" fill="#EC9A29"/>
<path d="M41.9845 198C41.7585 197.626 41.7 197.217 41.8091 196.784C41.9182 196.348 42.1598 196.021 42.5338 195.795L63.2611 183.331C63.6351 183.105 64.0403 183.047 64.4767 183.156C64.9091 183.265 65.2403 183.507 65.4663 183.881C65.6923 184.255 65.7468 184.656 65.6338 185.081C65.5208 185.505 65.2754 185.829 64.8975 186.055L45.1442 197.934L51.9974 209.33C52.1961 209.665 52.2507 210.016 52.1611 210.382C52.0715 210.748 51.8572 211.033 51.5221 211.235C51.2104 211.422 50.8676 211.473 50.5013 211.379C50.1351 211.29 49.8507 211.075 49.6481 210.74L41.9845 198Z" fill="white"/>
<path d="M55.1848 218.349C54.9199 217.999 54.8147 217.613 54.8731 217.184C54.9315 216.756 55.1341 216.413 55.4848 216.148L74.79 201.46C75.1406 201.195 75.5264 201.09 75.9549 201.148C76.3796 201.206 76.7263 201.409 76.9913 201.76C77.2562 202.11 77.3614 202.496 77.303 202.925C77.2445 203.353 77.0419 203.696 76.6913 203.961L57.3861 218.649C57.0354 218.914 56.6497 219.019 56.2211 218.961C55.7965 218.903 55.4497 218.7 55.1848 218.349Z" fill="white"/>
<path d="M79.8159 209.786C79.5393 209.548 79.3835 209.244 79.3445 208.874C79.3095 208.504 79.4147 208.173 79.6718 207.877C79.9095 207.6 80.2172 207.448 80.5952 207.417C80.9731 207.39 81.3004 207.495 81.577 207.732L88.7536 213.9L95.9302 220.067C96.2263 220.321 96.3861 220.636 96.4173 221.014C96.4445 221.392 96.3393 221.719 96.1017 221.996C95.8484 222.292 95.5367 222.448 95.1666 222.467C94.7965 222.487 94.4653 222.37 94.1692 222.117L88.2121 216.997L73.138 234.534C72.8536 234.865 72.4913 235.044 72.051 235.067C71.6108 235.091 71.225 234.962 70.8939 234.674C70.5627 234.39 70.3796 234.031 70.3484 233.603C70.3173 233.174 70.4419 232.792 70.7263 232.461L85.8004 214.925L79.8159 209.786Z" fill="white"/>
<path d="M99.2997 225.686C98.9568 225.561 98.7036 225.331 98.5399 225C98.3763 224.669 98.3607 224.318 98.4932 223.952C98.6179 223.609 98.8516 223.356 99.1945 223.196C99.5373 223.036 99.8802 223.017 100.223 223.141L109.114 226.375L118.005 229.609C118.371 229.742 118.632 229.979 118.796 230.322C118.956 230.665 118.975 231.008 118.85 231.351C118.718 231.717 118.48 231.974 118.141 232.122C117.802 232.27 117.448 232.278 117.082 232.145L109.698 229.461L101.797 251.193C101.649 251.606 101.372 251.899 100.971 252.078C100.57 252.257 100.161 252.269 99.7516 252.121C99.3386 251.973 99.0425 251.7 98.8594 251.31C98.6763 250.921 98.6607 250.519 98.8127 250.106L106.714 228.374L99.2997 225.686Z" fill="white"/>
<path d="M121.823 256.991C121.39 256.929 121.04 256.718 120.771 256.356C120.502 255.997 120.401 255.6 120.463 255.168L123.966 231.238C124.028 230.805 124.238 230.455 124.601 230.186C124.959 229.921 125.357 229.816 125.789 229.882C126.222 229.944 126.568 230.155 126.822 230.513C127.079 230.871 127.172 231.265 127.11 231.701L123.771 254.509L136.928 256.438C137.314 256.492 137.618 256.675 137.848 256.979C138.073 257.283 138.159 257.626 138.101 258.012C138.046 258.374 137.871 258.666 137.567 258.892C137.263 259.118 136.916 259.204 136.535 259.145L121.823 256.991Z" fill="white"/>
<path d="M147.128 259.617C146.692 259.671 146.298 259.562 145.944 259.29C145.589 259.017 145.383 258.662 145.328 258.226L144 247.936L143.649 245.221L142.235 234.241C142.18 233.805 142.285 233.412 142.562 233.057C142.835 232.703 143.189 232.496 143.626 232.441L158.372 230.54C158.758 230.49 159.101 230.583 159.401 230.813C159.701 231.043 159.876 231.354 159.927 231.74C159.974 232.103 159.88 232.434 159.65 232.734C159.42 233.034 159.109 233.209 158.723 233.26L145.535 234.958L146.805 244.815L158.4 243.319C158.785 243.269 159.128 243.362 159.428 243.592C159.728 243.822 159.903 244.122 159.946 244.484C159.997 244.87 159.903 245.213 159.674 245.513C159.444 245.813 159.132 245.988 158.746 246.039L147.151 247.535L148.332 256.703L161.52 255.004C161.906 254.953 162.249 255.047 162.549 255.277C162.849 255.51 163.024 255.818 163.075 256.204C163.122 256.566 163.028 256.897 162.798 257.197C162.564 257.497 162.257 257.673 161.871 257.723L147.128 259.617Z" fill="white"/>
<path d="M180.503 232.473C180.11 232.11 179.938 231.678 179.981 231.164C180.024 230.653 180.273 230.256 180.733 229.975C181.025 229.796 181.345 229.726 181.691 229.753C182.038 229.784 182.342 229.921 182.603 230.158L198.297 244.629L192.678 224.513C192.55 224.022 192.573 223.558 192.749 223.122C192.924 222.686 193.22 222.343 193.637 222.086C194.054 221.832 194.498 221.723 194.977 221.758C195.456 221.794 195.873 221.988 196.232 222.339L211.606 236.494L205.855 215.945C205.781 215.591 205.804 215.256 205.925 214.94C206.046 214.625 206.26 214.371 206.572 214.181C207.008 213.916 207.468 213.873 207.955 214.064C208.442 214.251 208.754 214.601 208.898 215.116L215.521 238.983C215.658 239.443 215.642 239.895 215.475 240.339C215.303 240.787 215.011 241.134 214.598 241.391C214.181 241.644 213.733 241.749 213.246 241.703C212.763 241.656 212.346 241.469 211.999 241.138L196.625 226.987L202.243 247.103C202.38 247.562 202.36 248.018 202.181 248.47C202.002 248.922 201.702 249.277 201.289 249.53C200.872 249.783 200.424 249.888 199.937 249.842C199.45 249.795 199.037 249.608 198.69 249.277L180.503 232.473Z" fill="white"/>
<path d="M232.314 227.244C232.029 227.575 231.663 227.762 231.215 227.793C230.767 227.829 230.377 227.7 230.046 227.416L222.172 220.66L220.092 218.875L211.692 211.667C211.361 211.383 211.177 211.017 211.142 210.569C211.107 210.125 211.236 209.731 211.52 209.4L221.202 198.117C221.455 197.821 221.771 197.661 222.149 197.63C222.527 197.603 222.862 197.712 223.158 197.969C223.435 198.206 223.587 198.514 223.618 198.892C223.645 199.27 223.532 199.605 223.279 199.901L214.618 209.992L222.157 216.464L229.77 207.592C230.023 207.296 230.338 207.136 230.716 207.105C231.094 207.078 231.422 207.179 231.698 207.421C231.994 207.674 232.158 207.99 232.185 208.367C232.212 208.745 232.1 209.08 231.846 209.377L224.233 218.248L231.246 224.267L239.907 214.177C240.161 213.88 240.476 213.721 240.854 213.69C241.232 213.662 241.567 213.771 241.863 214.029C242.14 214.266 242.292 214.574 242.323 214.952C242.35 215.33 242.237 215.669 241.984 215.961L232.314 227.244Z" fill="white"/>
<path d="M250.216 206.092C249.994 206.47 249.667 206.716 249.234 206.829C248.802 206.942 248.396 206.887 248.018 206.665L227.151 194.443C226.773 194.221 226.528 193.894 226.415 193.461C226.302 193.029 226.356 192.623 226.578 192.246L231.729 183.452C232.22 182.61 232.839 181.917 233.587 181.364C234.331 180.814 235.15 180.421 236.03 180.191C236.915 179.961 237.815 179.903 238.734 180.02C239.654 180.136 240.534 180.44 241.376 180.931C242.322 181.485 243.078 182.182 243.643 183.023C244.208 183.865 244.586 184.777 244.773 185.759C245.989 185.03 247.317 184.66 248.751 184.636C250.189 184.617 251.556 184.991 252.861 185.751C253.808 186.304 254.595 187.005 255.226 187.855C255.857 188.704 256.305 189.627 256.567 190.629C256.828 191.63 256.89 192.655 256.757 193.703C256.621 194.751 256.278 195.748 255.725 196.695L250.216 206.092ZM239.767 183.674C239.264 183.378 238.726 183.199 238.157 183.133C237.589 183.066 237.039 183.105 236.505 183.246C235.972 183.386 235.473 183.623 235.009 183.959C234.546 184.294 234.16 184.722 233.852 185.248L229.734 192.277L237.203 196.652L241.321 189.623C241.629 189.097 241.816 188.552 241.878 187.983C241.944 187.414 241.905 186.865 241.765 186.331C241.625 185.797 241.387 185.299 241.052 184.835C240.725 184.368 240.293 183.982 239.767 183.674ZM239.568 198.035L248.646 203.353L253.115 195.725C253.485 195.094 253.711 194.431 253.796 193.73C253.882 193.033 253.839 192.359 253.668 191.708C253.496 191.057 253.212 190.453 252.807 189.888C252.402 189.327 251.883 188.86 251.252 188.494C250.621 188.123 249.959 187.897 249.257 187.812C248.56 187.726 247.886 187.769 247.235 187.94C246.585 188.112 245.981 188.408 245.424 188.829C244.867 189.249 244.403 189.775 244.033 190.407L239.568 198.035Z" fill="white"/>
<path d="M46.8237 159.635C49.621 159.635 51.8887 157.367 51.8887 154.57C51.8887 151.773 49.621 149.505 46.8237 149.505C44.0264 149.505 41.7588 151.773 41.7588 154.57C41.7588 157.367 44.0264 159.635 46.8237 159.635Z" fill="#EC9A29"/>
<path d="M251.758 159.635C254.556 159.635 256.823 157.367 256.823 154.57C256.823 151.773 254.556 149.505 251.758 149.505C248.961 149.505 246.693 151.773 246.693 154.57C246.693 157.367 248.961 159.635 251.758 159.635Z" fill="#EC9A29"/>
</svg>
