<svg width="34" height="34" fill="none" xmlns="http://www.w3.org/2000/svg">
    <path d="M20.05 28.376c-1.404.745-6.023 3.223-12.172-3.569C2.557 18.93 5.305 12.91 7.64 11.181c.83-.614 2.572 3.18 7.581.384.42-.234 1.075-1.37 1.683-.696 2.683 2.983 4.75.466 4.672 2.258-.222 5.124 2.772 2.82 1.23 5.716-2.85 5.349.746 6.903-.211 7.734-.78.676-1.598 1.298-2.544 1.799Z" fill="#8B8B8B"/>
    <path d="M16.474 6.028c.326-1.384 3.766-1.942 6.132-.194 2.51 1.854 1.804 3.849.481 4.8-2.121 1.526-3.902 1.522-4.794.89-.995-.707-1.66-1.574-1.692-2.856-.02-.87-.302-1.731-.127-2.64ZM23.533 16.888c-.858-.582-1.478-1.322-1.455-2.43a.2.2 0 0 0-.003-.04c-.47-2.476 1.184-3.624 2.722-4.46.49-.266 1.173-.372 1.697-.125 1.306.613 2.91 2.63 2.612 4.418-.137.82-.194 1.65-.509 2.429-.237.584-.627.934-1.285.944-.354.006-2.978-.192-3.779-.736ZM13.927 5.301c.944.015 1.502.55 1.851 1.327.46 1.02.501 2.077.167 3.128-.294.928-.933 1.558-1.844 1.873-2.43.838-5.871.17-5.65-1.932.12-1.128.467-1.659 1.25-2.427a7.198 7.198 0 0 1 2.989-1.76 4.808 4.808 0 0 1 1.237-.209ZM28.201 21.713c-.505 1.046-1.072 2.025-1.847 2.844-.687.725-2.685 1.86-3.27.978-2.262-3.405-.23-6.217.915-6.912.316-.191.746-.705 2.763-.535 1.45.122 2.277 1.383 1.803 2.771-.096.283-.23.551-.364.854Z" fill="#8B8B8B"/>
</svg>
