<svg width="1365" height="462" fill="none" xmlns="http://www.w3.org/2000/svg">
    <g clip-path="url(#a)">
        <path d="m-237.566 357.122 43.879-8.922c43.849-9.354 131.654-26.548 218.97-50.562 87.362-23.364 174.233-53.548 263.261-53.747 88.997-.632 180.071 27.639 270.733 50.173 90.631 22.1 180.927 39.546 266.997-1.787 86.117-40.685 168.008-140.149 254.126-180.833 86.07-41.334 176.36-23.888 221.46-15.922l45.12 8.398 17.44 242.48-44.3 3.184-221.45 15.923-265.757 19.107-265.752 19.107-265.752 19.107-265.752 19.107-221.46 15.922-44.292 3.185-7.471-103.92Z" fill="#251B40"/>
    </g>
    <defs>
        <clipPath id="a">
            <path fill="#fff" transform="rotate(-4.112 1469.065 3608.586)" d="M0 0h1598.63v347.294H0z"/>
        </clipPath>
    </defs>
</svg>
