<svg width="540" height="414" fill="none" xmlns="http://www.w3.org/2000/svg">
    <path d="M184.304 11.673c-33.104 18.403-56.99 46.821-79.495 75.006l-67.102 84.076c-24.81 31.09-50.544 70.952-30.566 104.629 24.916 42.01 96.797 36.405 139.534 65.253 24.895 16.806 38.415 44.607 64.67 59.731 22.176 12.78 50.235 14.592 76.713 13.266 76.373-3.802 152.725-32.276 201.537-84.077 48.813-51.8 65.966-127.778 34.507-189.107-17.333-33.799-47.676-61.422-81.896-83.077-45.775-28.95-195.187-80.573-257.902-45.7Z" fill="#A3BCF9"/>
</svg>
