<svg width="300" height="300" fill="none" xmlns="http://www.w3.org/2000/svg">
    <path d="M150 300c82.843 0 150-67.157 150-150S232.843 0 150 0 0 67.157 0 150s67.157 150 150 150Z" fill="#251B40"/>
    <path d="M195.448 119.369c-9.176-13.516-23.49-21.592-41.385-23.51-28.64-3.07-62.633 13.649-62.633 56.876l7.912.082c0-41.735 33.18-50.977 53.319-48.682 54.58 6.226 47.797 71.174 34.574 79.259-21.183 12.954-26.591-12.047-26.591-12.047h-7.753s-2.95 16.815-17.919 14.252c-9.794-1.676-12.592-12.102-13.352-15.779 21.819-11.646 20.946-37.5 20.946-37.5l-18.935-5.763s-12.366 19.882-11.572 38.54c-18.99 5.549-32.088-7.803-32.139-7.854l-5.809 5.388c.23.246 15.94 17.813 39.55 10.282.904 3.616 5.162 18.374 19.882 20.895 12.767 2.186 20.197-5.26 22.671-9.121 3.319 5.513 9.678 10.177 18.966 10.601.261.012.522.004.787.02 12.585.576 27.105-10.434 29.431-34.465 1.446-14.918-2.181-30.031-9.95-41.474Zm-67.793 16.913 6.359 1.893c-.429 2.95-1.672 15.117-13.36 22.656.53-10.726 4.609-19.769 7.001-24.549Z" fill="#EC9A29"/>
    <path d="m111.649 128.827-6.715 6.597 5.155 5.247 6.715-6.596-5.155-5.248Z" fill="#EC9A29"/>
    <path d="M41.984 198a1.543 1.543 0 0 1-.175-1.216c.11-.436.35-.763.725-.989l20.727-12.464a1.54 1.54 0 0 1 1.216-.175c.432.109.763.351.99.725.225.374.28.775.167 1.2a1.565 1.565 0 0 1-.737.974l-19.753 11.879 6.853 11.396c.2.335.254.686.164 1.052a1.34 1.34 0 0 1-.639.853 1.293 1.293 0 0 1-1.02.144 1.34 1.34 0 0 1-.854-.639L41.984 198ZM55.185 218.349a1.52 1.52 0 0 1-.312-1.165c.059-.428.261-.771.612-1.036L74.79 201.46c.35-.265.736-.37 1.165-.312a1.51 1.51 0 0 1 1.036.612c.265.35.37.736.312 1.165a1.506 1.506 0 0 1-.612 1.036l-19.305 14.688c-.35.265-.736.37-1.165.312a1.51 1.51 0 0 1-1.036-.612ZM79.816 209.786a1.344 1.344 0 0 1-.472-.912c-.034-.37.07-.701.328-.997.237-.277.545-.429.923-.46.378-.027.705.078.982.315l7.177 6.168 7.176 6.167c.296.254.456.569.487.947.028.378-.078.705-.315.982a1.274 1.274 0 0 1-.935.471c-.37.02-.702-.097-.998-.35l-5.957-5.12-15.074 17.537a1.48 1.48 0 0 1-1.087.533 1.568 1.568 0 0 1-1.157-.393 1.51 1.51 0 0 1-.546-1.071 1.522 1.522 0 0 1 .378-1.142L85.8 214.925l-5.984-5.139ZM99.3 225.686a1.33 1.33 0 0 1-.76-.686 1.29 1.29 0 0 1-.047-1.048 1.3 1.3 0 0 1 .702-.756 1.3 1.3 0 0 1 1.028-.055l8.891 3.234 8.891 3.234c.366.133.627.37.791.713.16.343.179.686.054 1.029-.132.366-.37.623-.709.771a1.381 1.381 0 0 1-1.059.023l-7.384-2.684-7.901 21.732a1.482 1.482 0 0 1-.826.885c-.401.179-.81.191-1.22.043a1.515 1.515 0 0 1-.892-.811 1.504 1.504 0 0 1-.046-1.204l7.901-21.732-7.414-2.688ZM121.823 256.991a1.537 1.537 0 0 1-1.052-.635 1.546 1.546 0 0 1-.308-1.188l3.503-23.93c.062-.433.272-.783.635-1.052.358-.265.756-.37 1.188-.304.433.062.779.273 1.033.631.257.358.35.752.288 1.188l-3.339 22.808 13.157 1.929c.386.054.69.237.92.541.225.304.311.647.253 1.033a1.3 1.3 0 0 1-.534.88 1.33 1.33 0 0 1-1.032.253l-14.712-2.154ZM147.128 259.617a1.56 1.56 0 0 1-1.184-.327 1.54 1.54 0 0 1-.616-1.064L144 247.936l-.351-2.715-1.414-10.98c-.055-.436.05-.829.327-1.184a1.542 1.542 0 0 1 1.064-.616l14.746-1.901c.386-.05.729.043 1.029.273.3.23.475.541.526.927.047.363-.047.694-.277.994-.23.3-.541.475-.927.526l-13.188 1.698 1.27 9.857 11.595-1.496c.385-.05.728.043 1.028.273.3.23.475.53.518.892.051.386-.043.729-.272 1.029-.23.3-.542.475-.928.526l-11.595 1.496 1.181 9.168 13.188-1.699c.386-.051.729.043 1.029.273.3.233.475.541.526.927.047.362-.047.693-.277.993a1.35 1.35 0 0 1-.927.526l-14.743 1.894ZM180.503 232.473c-.393-.363-.565-.795-.522-1.309.043-.511.292-.908.752-1.189.292-.179.612-.249.958-.222.347.031.651.168.912.405l15.694 14.471-5.619-20.116a2.167 2.167 0 0 1 .071-1.391c.175-.436.471-.779.888-1.036a2.203 2.203 0 0 1 1.34-.328c.479.036.896.23 1.255.581l15.374 14.155-5.751-20.549a1.752 1.752 0 0 1 .07-1.005c.121-.315.335-.569.647-.759a1.486 1.486 0 0 1 1.383-.117c.487.187.799.537.943 1.052l6.623 23.867c.137.46.121.912-.046 1.356a2.092 2.092 0 0 1-.877 1.052 2.147 2.147 0 0 1-1.352.312 2.043 2.043 0 0 1-1.247-.565l-15.374-14.151 5.618 20.116c.137.459.117.915-.062 1.367a2.14 2.14 0 0 1-.892 1.06 2.147 2.147 0 0 1-1.352.312 2.033 2.033 0 0 1-1.247-.565l-18.187-16.804ZM232.314 227.244a1.538 1.538 0 0 1-1.099.549 1.54 1.54 0 0 1-1.169-.377l-7.874-6.756-2.08-1.785-8.4-7.208a1.55 1.55 0 0 1-.55-1.098 1.55 1.55 0 0 1 .378-1.169l9.682-11.283c.253-.296.569-.456.947-.487.378-.027.713.082 1.009.339.277.237.429.545.46.923a1.35 1.35 0 0 1-.339 1.009l-8.661 10.091 7.539 6.472 7.613-8.872c.253-.296.568-.456.946-.487.378-.027.706.074.982.316.296.253.46.569.487.946a1.35 1.35 0 0 1-.339 1.01l-7.613 8.871 7.013 6.019 8.661-10.09c.254-.297.569-.456.947-.487.378-.028.713.081 1.009.339.277.237.429.545.46.923.027.378-.086.717-.339 1.009l-9.67 11.283ZM250.216 206.092a1.547 1.547 0 0 1-.982.737 1.543 1.543 0 0 1-1.216-.164l-20.867-12.222a1.546 1.546 0 0 1-.736-.982 1.54 1.54 0 0 1 .163-1.215l5.151-8.794a6.85 6.85 0 0 1 1.858-2.088 7.088 7.088 0 0 1 5.147-1.344c.92.116 1.8.42 2.642.911.946.554 1.702 1.251 2.267 2.092a7.327 7.327 0 0 1 1.13 2.736 7.858 7.858 0 0 1 3.978-1.123c1.438-.019 2.805.355 4.11 1.115a7.813 7.813 0 0 1 2.365 2.104 8.01 8.01 0 0 1 1.341 2.774 8.056 8.056 0 0 1 .19 3.074 7.897 7.897 0 0 1-1.032 2.992l-5.509 9.397Zm-10.449-22.418a4.067 4.067 0 0 0-1.61-.541 4.395 4.395 0 0 0-1.652.113 4.469 4.469 0 0 0-1.496.713 4.161 4.161 0 0 0-1.157 1.289l-4.118 7.029 7.469 4.375 4.118-7.029a4.097 4.097 0 0 0 .557-1.64 4.435 4.435 0 0 0-.826-3.148 4.023 4.023 0 0 0-1.285-1.161Zm-.199 14.361 9.078 5.318 4.469-7.628c.37-.631.596-1.294.681-1.995a5.323 5.323 0 0 0-.128-2.022 5.508 5.508 0 0 0-.861-1.82 4.965 4.965 0 0 0-1.555-1.394 5.102 5.102 0 0 0-1.995-.682 5.323 5.323 0 0 0-2.022.128 5.178 5.178 0 0 0-1.811.889 5.31 5.31 0 0 0-1.391 1.578l-4.465 7.628Z" fill="#fff"/>
    <path d="M46.824 159.635a5.065 5.065 0 1 0 0-10.13 5.065 5.065 0 0 0 0 10.13ZM251.758 159.635a5.065 5.065 0 1 0 0-10.13 5.065 5.065 0 0 0 0 10.13Z" fill="#EC9A29"/>
</svg>
