<svg width="50" height="50" viewBox="0 0 50 50" fill="none" xmlns="http://www.w3.org/2000/svg">
<path d="M23.5941 27.4479H26.7191V14.2708H23.5941V27.4479ZM25.0003 35.4167C25.4864 35.4167 25.8944 35.2517 26.2243 34.9219C26.5541 34.592 26.7191 34.184 26.7191 33.6979C26.7191 33.2118 26.5541 32.8038 26.2243 32.4739C25.8944 32.1441 25.4864 31.9792 25.0003 31.9792C24.5142 31.9792 24.1062 32.1441 23.7764 32.4739C23.4465 32.8038 23.2816 33.2118 23.2816 33.6979C23.2816 34.184 23.4465 34.592 23.7764 34.9219C24.1062 35.2517 24.5142 35.4167 25.0003 35.4167ZM25.0003 45.8333C22.0489 45.8333 19.3059 45.3038 16.7712 44.2448C14.2364 43.1858 12.0316 41.7187 10.1566 39.8437C8.28158 37.9687 6.81456 35.7639 5.75553 33.2292C4.69651 30.6944 4.16699 27.9514 4.16699 25C4.16699 22.0833 4.69651 19.3576 5.75553 16.8229C6.81456 14.2882 8.28158 12.0833 10.1566 10.2083C12.0316 8.33332 14.2364 6.85763 16.7712 5.78124C19.3059 4.70485 22.0489 4.16666 25.0003 4.16666C27.917 4.16666 30.6427 4.70485 33.1774 5.78124C35.7121 6.85763 37.917 8.33332 39.792 10.2083C41.667 12.0833 43.1427 14.2882 44.2191 16.8229C45.2955 19.3576 45.8337 22.0833 45.8337 25C45.8337 27.9514 45.2955 30.6944 44.2191 33.2292C43.1427 35.7639 41.667 37.9687 39.792 39.8437C37.917 41.7187 35.7121 43.1858 33.1774 44.2448C30.6427 45.3038 27.917 45.8333 25.0003 45.8333ZM25.0003 42.7083C29.8614 42.7083 34.0281 40.9722 37.5003 37.5C40.9726 34.0278 42.7087 29.8611 42.7087 25C42.7087 20.1389 40.9726 15.9722 37.5003 12.5C34.0281 9.02777 29.8614 7.29166 25.0003 7.29166C20.1392 7.29166 15.9725 9.02777 12.5003 12.5C9.0281 15.9722 7.29199 20.1389 7.29199 25C7.29199 29.8611 9.0281 34.0278 12.5003 37.5C15.9725 40.9722 20.1392 42.7083 25.0003 42.7083Z" fill="#FF1654"/>
</svg>
