<svg width="185" height="161" viewBox="0 0 185 161" fill="none" xmlns="http://www.w3.org/2000/svg">
<path d="M63.0437 4.53944C51.7199 11.6963 43.5494 22.7477 35.8512 33.7083C28.2002 44.6071 20.5492 55.506 12.8983 66.4048C4.41171 78.4952 -4.39091 93.997 2.44265 107.094C10.9655 123.431 35.5533 121.251 50.1722 132.47C58.6879 139.005 63.3126 149.817 72.2932 155.699C79.8788 160.669 89.477 161.373 98.534 160.858C124.658 159.379 150.776 148.306 167.473 128.161C184.17 108.016 190.037 78.4698 179.276 54.6195C173.347 41.4756 162.968 30.7329 151.262 22.3118C135.604 11.0533 84.4963 -9.02233 63.0437 4.53944Z" fill="#FAAEAE"/>
</svg>
