<?xml version="1.0" encoding="utf-8"?><svg viewBox="0 0 185 161" xmlns="http://www.w3.org/2000/svg" xmlns:xlink="http://www.w3.org/1999/xlink"><style>:root>svg{display:none}:root>svg:target{display:block}</style><svg viewBox="0 0 24 24" id="icon-close" xmlns="http://www.w3.org/2000/svg"><path d="M6.225 18.825l-1.05-1.05L10.95 12 5.175 6.225l1.05-1.05L12 10.95l5.775-5.775 1.05 1.05L13.05 12l5.775 5.775-1.05 1.05L12 13.05l-5.775 5.775z"/></svg><svg viewBox="0 0 50 50" id="icon-info" xmlns="http://www.w3.org/2000/svg"><path d="M23.594 27.448h3.125V14.27h-3.125v13.177zM25 35.417c.486 0 .894-.165 1.224-.495.33-.33.495-.738.495-1.224s-.165-.894-.495-1.224A1.663 1.663 0 0025 31.979c-.486 0-.894.165-1.224.495-.33.33-.494.738-.494 1.224s.165.894.494 1.224c.33.33.738.495 1.224.495zm0 10.416c-2.951 0-5.694-.53-8.229-1.588-2.535-1.06-4.74-2.526-6.614-4.401-1.875-1.875-3.342-4.08-4.401-6.615-1.06-2.535-1.589-5.278-1.589-8.229 0-2.917.53-5.642 1.589-8.177 1.059-2.535 2.526-4.74 4.4-6.615 1.876-1.875 4.08-3.35 6.615-4.427 2.535-1.076 5.278-1.614 8.23-1.614 2.916 0 5.642.538 8.176 1.614 2.535 1.077 4.74 2.552 6.615 4.427 1.875 1.875 3.35 4.08 4.427 6.615 1.076 2.535 1.615 5.26 1.615 8.177 0 2.951-.539 5.694-1.615 8.23-1.076 2.534-2.552 4.739-4.427 6.614-1.875 1.875-4.08 3.342-6.615 4.4-2.534 1.06-5.26 1.59-8.177 1.59zm0-3.125c4.861 0 9.028-1.736 12.5-5.208 3.473-3.472 5.209-7.639 5.209-12.5s-1.736-9.028-5.209-12.5C34.028 9.028 29.861 7.292 25 7.292c-4.86 0-9.027 1.736-12.5 5.208-3.472 3.472-5.208 7.639-5.208 12.5s1.736 9.028 5.208 12.5c3.473 3.472 7.64 5.208 12.5 5.208z"/></svg><svg viewBox="0 0 185 161" id="icon-shape" xmlns="http://www.w3.org/2000/svg"><path d="M63.044 4.54C51.72 11.695 43.549 22.747 35.85 33.707c-7.65 10.9-15.302 21.798-22.953 32.697C4.412 78.495-4.39 93.997 2.443 107.094c8.523 16.337 33.11 14.157 47.73 25.376 8.515 6.535 13.14 17.347 22.12 23.229 7.586 4.97 17.184 5.674 26.241 5.159 26.124-1.479 52.242-12.552 68.939-32.697 16.697-20.145 22.564-49.691 11.803-73.541-5.929-13.144-16.308-23.887-28.014-32.308C135.604 11.053 84.496-9.022 63.044 4.539z"/></svg><svg viewBox="0 0 34 34" id="icon-step" xmlns="http://www.w3.org/2000/svg"><path d="M20.05 28.376c-1.404.745-6.023 3.223-12.172-3.569C2.557 18.93 5.305 12.91 7.64 11.181c.83-.614 2.572 3.18 7.581.384.42-.234 1.075-1.37 1.683-.696 2.683 2.983 4.75.466 4.672 2.258-.222 5.124 2.772 2.82 1.23 5.716-2.85 5.349.746 6.903-.211 7.734-.78.676-1.598 1.298-2.544 1.799z"/><path d="M16.474 6.028c.326-1.384 3.766-1.942 6.132-.194 2.51 1.854 1.804 3.849.481 4.8-2.121 1.526-3.902 1.522-4.794.89-.995-.707-1.66-1.574-1.692-2.856-.02-.87-.302-1.731-.127-2.64zm7.059 10.86c-.858-.582-1.478-1.322-1.455-2.43a.2.2 0 00-.003-.04c-.47-2.476 1.184-3.624 2.722-4.46.49-.266 1.173-.372 1.697-.125 1.306.613 2.91 2.63 2.612 4.418-.137.82-.194 1.65-.509 2.429-.237.584-.627.934-1.285.944-.354.006-2.978-.192-3.779-.736zM13.927 5.301c.944.015 1.502.55 1.851 1.327.46 1.02.501 2.077.167 3.128-.294.928-.933 1.558-1.844 1.873-2.43.838-5.871.17-5.65-1.932.12-1.128.467-1.659 1.25-2.427a7.198 7.198 0 012.989-1.76 4.808 4.808 0 011.237-.209zm14.274 16.412c-.505 1.046-1.072 2.025-1.847 2.844-.687.725-2.685 1.86-3.27.978-2.262-3.405-.23-6.217.915-6.912.316-.191.746-.705 2.763-.535 1.45.122 2.277 1.383 1.803 2.771-.096.283-.23.551-.364.854z"/></svg><svg viewBox="0 0 100 100" id="icon-success" xmlns="http://www.w3.org/2000/svg"><path d="M39.375 74.375L16.042 51.042l4.48-4.48 18.853 18.855 40-40 4.48 4.479-44.48 44.479z"/></svg></svg>